# xmcd
#
# Track frame offsets:
#	182
#	15557
#	25942
#	41487
#	51335
#	62610
#	72172
#	82737
#	93437
#	106670
#
# Disc length: 1605 seconds
#
# Revision: 1
# Processed by: cddbd v1.4PL0 Copyright (c) Steve Scherf et al.
# Submitted via: audiograbber 1.80.04
#
DISCID=7006430a
DTITLE=Bob Wills and His Texas Playboys - San Antonio Rose
DYEAR=1900
DGENRE=Country
TTITLE0=San Antonio Rose
TTITLE1=Time Changes Everything
TTITLE2=Steel Guitar Rag
TTITLE3=Take Me Back to Tulsa
TTITLE4=Roly-Poly
TTITLE5=My Window Faces the South
TTITLE6=Stay a Little Longer
TTITLE7=Big Beaver
TTITLE8=Cherokee Maiden
TTITLE9=Faded Love
EXTD=
EXTT0=
EXTT1=
EXTT2=
EXTT3=
EXTT4=
EXTT5=
EXTT6=
EXTT7=
EXTT8=
EXTT9=
PLAYORDER=
